<?xml version="1.0" encoding="utf-8"?>
<!-- Generator: Adobe Illustrator 25.2.0, SVG Export Plug-In . SVG Version: 6.00 Build 0)  -->
<svg version="1.1" id="Capa_1" xmlns="http://www.w3.org/2000/svg" xmlns:xlink="http://www.w3.org/1999/xlink" x="0px" y="0px"
	 viewBox="0 0 61.69 16.37" style="enable-background:new 0 0 61.69 16.37;" xml:space="preserve">
<style type="text/css">
	.st0{fill:#006AF6;}
	.st1{fill:#FC3553;}
</style>
<g>
	<g id="XMLID_779_">
		<path id="XMLID_787_" class="st0" d="M35.82,6.36L34.39,9.7h-5.96l-2.85,6.66h-5.46l5.16-12.08H13.05c-0.46,0-0.99,0.37-1.19,0.83
			c-0.2,0.46,0.01,0.83,0.47,0.83h5.68c2.8,0,4.29,2.15,3.22,4.95c-1.14,2.99-4.59,5.46-7.55,5.46H0l1.84-4.28h12.29
			c0.46,0,0.99-0.37,1.19-0.83c0.05-0.12,0.07-0.23,0.07-0.33c0-0.3-0.2-0.5-0.55-0.5H8.9c-2.96,0-4.28-2.47-2.86-5.46
			C7.38,2.16,10.72,0,13.53,0h19.05l-2.72,6.36H35.82z"/>
		<g id="XMLID_780_">
			<polygon id="XMLID_786_" class="st1" points="39.32,10.91 37,16.37 31.54,16.37 33.86,10.91 			"/>
			<polygon id="XMLID_785_" class="st1" points="47.1,5.46 44.78,10.91 39.32,10.91 41.64,5.46 			"/>
			<polygon id="XMLID_784_" class="st1" points="47.64,0 43.58,0.9 41.64,5.46 36.19,5.46 38.51,0 			"/>
			<polygon id="XMLID_783_" class="st1" points="50.24,10.91 47.92,16.37 42.46,16.37 44.78,10.91 			"/>
			<polygon id="XMLID_782_" class="st1" points="61.69,5.46 57.63,6.35 55.69,10.91 50.23,10.91 52.56,5.46 			"/>
			<polygon id="XMLID_781_" class="st1" points="58.55,0 54.5,0.9 52.56,5.46 47.1,5.46 49.42,0 			"/>
		</g>
	</g>
</g>
</svg>
